<?xml version="1.0" encoding="UTF-8"?> <svg xmlns="http://www.w3.org/2000/svg" width="30" height="30" viewBox="0 0 30 30"><metadata><?xpacket begin="﻿" id="W5M0MpCehiHzreSzNTczkc9d"?><?xpacket end="w"?></metadata><defs><style> .cls-1 { fill: #e92d74; fill-rule: evenodd; } </style></defs><path id="mobile-phone" class="cls-1" d="M578.908,6402.01a0.511,0.511,0,0,0-.528.5,0.534,0.534,0,0,0,1.065,0,0.514,0.514,0,0,0-.532-0.5h0Zm0.521,24.99a1.064,1.064,0,1,0,1.062-1A1.028,1.028,0,0,0,579.429,6427Zm-6.9-4a0.514,0.514,0,0,0,.531-0.5v-19.99a1.7,1.7,0,0,1,1.593-1.5h11.685a1.7,1.7,0,0,1,1.594,1.5,0.532,0.532,0,0,0,1.062,0,2.715,2.715,0,0,0-2.656-2.5H574.648a2.715,2.715,0,0,0-2.655,2.5v19.99A0.514,0.514,0,0,0,572.524,6423Zm8.5-20.99a0.514,0.514,0,0,0-.531.5,0.52,0.52,0,0,0,.531.5h2.125a0.52,0.52,0,0,0,.531-0.5,0.514,0.514,0,0,0-.531-0.5h-2.125Zm4.249,7a0.541,0.541,0,0,0,.376-0.15,0.484,0.484,0,0,0,0-.71l-1.063-1a0.565,0.565,0,0,0-.75,0,0.482,0.482,0,0,0,0,.71l1.062,1A0.537,0.537,0,0,0,585.271,6409.01Zm-4.624-1.86a0.482,0.482,0,0,0,0,.71l4.249,4a0.574,0.574,0,0,0,.751,0,0.484,0.484,0,0,0,0-.71l-4.249-4A0.566,0.566,0,0,0,580.647,6407.15Zm7.811-3.14h-13.81a0.514,0.514,0,0,0-.531.5,0.52,0.52,0,0,0,.531.5h13.279v22.49a1.7,1.7,0,0,1-1.594,1.5H574.648a1.7,1.7,0,0,1-1.593-1.5V6425h13.278a0.514,0.514,0,0,0,.532-0.5,0.521,0.521,0,0,0-.532-0.5H572.524a0.52,0.52,0,0,0-.531.5v3a2.715,2.715,0,0,0,2.655,2.5h11.685a2.715,2.715,0,0,0,2.656-2.5v-22.99A0.514,0.514,0,0,0,588.458,6404.01Z" transform="translate(-565.5 -6400)"></path></svg> 