<?xml version="1.0" encoding="UTF-8"?> <svg xmlns="http://www.w3.org/2000/svg" width="30" height="30" viewBox="0 0 30 30"><metadata><?xpacket begin="﻿" id="W5M0MpCehiHzreSzNTczkc9d"?><?xpacket end="w"?></metadata><defs><style> .cls-1 { fill: #e92d74; fill-rule: evenodd; } </style></defs><path id="address" class="cls-1" d="M234.994,6399.99a9.873,9.873,0,0,0-10,9.71c0,4.8,3.421,11.08,6.29,15.5a0.644,0.644,0,0,0,.867.19,0.6,0.6,0,0,0,.2-0.84c-5.038-7.77-6.1-12.36-6.1-14.85a8.746,8.746,0,0,1,17.485,0c0,7.61-9.147,19.21-9.24,19.32a0.6,0.6,0,0,0,.113.86,0.685,0.685,0,0,0,.385.13,0.654,0.654,0,0,0,.5-0.24c0.388-.49,9.5-12.04,9.5-20.07A9.872,9.872,0,0,0,234.994,6399.99Zm0,6.62a0.624,0.624,0,0,0,.628-0.61,0.617,0.617,0,0,0-.628-0.61,4.317,4.317,0,1,0,4.446,4.31,4.164,4.164,0,0,0-.9-2.6,0.635,0.635,0,0,0-.881-0.12,0.592,0.592,0,0,0-.121.85,3.028,3.028,0,0,1,.647,1.87A3.19,3.19,0,1,1,234.994,6406.61Z" transform="translate(-220 -6400)"></path></svg> 